<?xml version="1.0" standalone="no"?>
<!DOCTYPE svg PUBLIC "-//W3C//DTD SVG 20010904//EN"
 "http://www.w3.org/TR/2001/REC-SVG-20010904/DTD/svg10.dtd">
<svg version="1.0" xmlns="http://www.w3.org/2000/svg"
 width="128.000000pt" height="128.000000pt" viewBox="10 -139 128.000000 128.000000"
 preserveAspectRatio="xMidYMid meet">
<metadata>
Created by potrace 1.15, written by Peter Selinger 2001-2017
</metadata>
<g transform="scale(0.1175,-0.1175)"
fill="#000000" stroke="none">
<path d="M545 1110 c-112 -23 -239 -99 -325 -197 -37 -42 -51 -73 -32 -73 4 0
35 28 68 63 125 127 273 172 442 132 70 -17 183 -71 230 -110 73 -61 152 -244
152 -350 0 -63 -28 -157 -66 -218 -15 -23 -60 -77 -102 -119 -61 -62 -72 -78
-55 -78 52 0 221 197 264 307 31 82 32 213 1 303 -83 242 -332 389 -577 340z"/>
<path d="M580 940 c-42 -42 -16 -100 45 -100 41 0 65 22 65 60 0 54 -71 79
-110 40z"/>
<path d="M501 769 c-50 -54 -54 -209 -5 -209 13 0 15 8 10 44 -8 52 14 116 40
116 12 0 15 -6 10 -22 -13 -44 -19 -382 -7 -411 22 -56 36 -25 41 91 3 69 10
116 18 124 23 23 35 -9 42 -117 4 -76 11 -110 22 -121 15 -15 17 -15 27 4 8
15 8 67 1 189 -11 173 -7 254 13 234 5 -5 14 -38 19 -73 9 -68 23 -92 38 -68
13 21 12 112 -1 166 -17 65 -36 74 -151 74 -86 0 -100 -2 -117 -21z"/>
</g>
</svg>
