<?xml version="1.0" standalone="no"?>
<!DOCTYPE svg PUBLIC "-//W3C//DTD SVG 20010904//EN"
 "http://www.w3.org/TR/2001/REC-SVG-20010904/DTD/svg10.dtd">
<svg version="1.0" xmlns="http://www.w3.org/2000/svg"
 width="128.000000pt" height="128.000000pt" viewBox="10 -139 128.000000 128.000000"
 preserveAspectRatio="xMidYMid meet">
<metadata>
Created by potrace 1.15, written by Peter Selinger 2001-2017
</metadata>
<g transform="scale(0.1175,-0.1175)"
fill="#000000" stroke="none">
<path d="M359 1131 c-92 -20 -121 -32 -156 -64 -68 -62 23 -325 154 -448 45
-43 100 -70 247 -124 66 -24 111 -65 102 -92 -4 -11 -47 -58 -96 -103 -100
-91 -104 -101 -68 -175 23 -46 38 -58 38 -28 0 9 9 35 20 58 23 47 64 74 155
100 100 28 175 75 175 108 0 8 -25 21 -61 31 -82 22 -74 41 17 41 78 1 87 11
60 64 -22 42 -35 47 -182 72 -129 21 -213 46 -250 74 -26 20 -15 19 142 -5
207 -32 247 -26 274 39 20 48 9 61 -54 61 -150 0 -356 35 -406 68 -24 16 -14
17 205 23 229 5 321 18 376 52 24 15 51 104 47 154 -3 37 -4 38 -68 60 -81 27
-212 42 -423 48 -135 4 -176 2 -248 -14z m524 -55 c50 -25 47 -53 -8 -75 -31
-12 -84 -15 -240 -16 -185 0 -203 2 -247 22 -54 25 -59 36 -24 59 40 25 110
33 301 31 153 -2 186 -5 218 -21z"/>
</g>
</svg>
