<?xml version="1.0" standalone="no"?>
<!DOCTYPE svg PUBLIC "-//W3C//DTD SVG 20010904//EN"
 "http://www.w3.org/TR/2001/REC-SVG-20010904/DTD/svg10.dtd">
<svg version="1.0" xmlns="http://www.w3.org/2000/svg"
 width="128.000000pt" height="128.000000pt" viewBox="10 -139 128.000000 128.000000"
 preserveAspectRatio="xMidYMid meet">
<metadata>
Created by potrace 1.15, written by Peter Selinger 2001-2017
</metadata>
<g transform="scale(0.1175,-0.1175)"
fill="#000000" stroke="none">
<path d="M598 1083 l-67 -67 -75 52 c-115 81 -124 72 -81 -81 13 -48 22 -94
19 -102 -7 -17 -37 -25 -104 -25 l-55 0 65 -59 c36 -32 63 -61 60 -64 -3 -2
-47 -30 -98 -61 -50 -32 -92 -62 -92 -67 0 -10 43 -31 133 -64 27 -9 51 -23
54 -31 3 -8 -13 -74 -36 -148 -23 -74 -41 -139 -41 -145 0 -15 38 5 158 81
106 67 148 81 169 53 7 -11 13 -31 13 -47 0 -41 14 -35 51 22 26 41 36 49 53
44 41 -13 142 -57 230 -101 48 -24 91 -42 94 -38 3 3 -13 52 -36 108 -76 184
-75 187 27 187 l65 0 -63 64 -64 65 62 66 c34 37 61 74 59 83 -4 21 -38 30
-122 31 -66 1 -68 2 -62 24 24 85 38 148 34 152 -3 3 -36 -11 -73 -30 -40 -21
-79 -35 -94 -33 -28 3 -38 19 -89 136 l-27 62 -67 -67z m75 -144 c12 -6 32
-22 43 -36 15 -17 34 -27 58 -29 40 -3 84 -26 93 -50 3 -8 -3 -24 -12 -35 -18
-19 -18 -20 1 -33 15 -12 19 -26 18 -73 -1 -109 -66 -209 -149 -232 -117 -32
-216 3 -276 97 -38 60 -40 134 -5 207 25 53 49 79 108 114 20 12 40 32 44 44
11 37 37 46 77 26z"/>
<path d="M566 789 c-39 -30 -56 -71 -56 -131 0 -157 167 -202 257 -69 44 66
21 158 -49 201 -45 27 -117 27 -152 -1z m98 -21 c18 -85 24 -123 20 -130 -7
-11 -72 -10 -78 1 -5 8 8 101 20 139 6 20 33 13 38 -10z"/>
</g>
</svg>
