<?xml version="1.0" standalone="no"?>
<!DOCTYPE svg PUBLIC "-//W3C//DTD SVG 20010904//EN"
 "http://www.w3.org/TR/2001/REC-SVG-20010904/DTD/svg10.dtd">
<svg version="1.0" xmlns="http://www.w3.org/2000/svg"
 width="128.000000pt" height="128.000000pt" viewBox="10 -139 128.000000 128.000000"
 preserveAspectRatio="xMidYMid meet">
<metadata>
Created by potrace 1.15, written by Peter Selinger 2001-2017
</metadata>
<g transform="scale(0.1175,-0.1175)"
fill="#000000" stroke="none">
<path d="M571 949 c-139 -27 -421 -230 -421 -302 0 -26 137 -160 218 -214 95
-64 161 -85 262 -84 99 0 175 18 263 62 143 73 267 183 267 239 0 21 -111 128
-183 178 -102 70 -162 98 -250 116 -84 18 -92 18 -156 5z m179 -60 c59 -18
122 -81 143 -144 65 -189 -54 -365 -245 -365 -147 1 -247 103 -248 252 0 103
51 217 113 250 56 30 150 33 237 7z"/>
<path d="M601 849 c-42 -17 -101 -70 -127 -115 -87 -148 53 -323 231 -290 48
9 103 60 131 121 41 87 28 149 -45 221 -67 67 -129 88 -190 63z m112 -64 c42
-29 77 -90 77 -135 0 -71 -58 -143 -125 -156 -50 -9 -123 28 -141 72 -33 79
-2 176 69 219 53 31 73 31 120 0z"/>
<path d="M617 692 c-10 -10 -17 -34 -17 -53 0 -51 22 -75 67 -70 17 1 43 54
43 85 0 50 -60 75 -93 38z"/>
</g>
</svg>
