<?xml version="1.0" standalone="no"?>
<!DOCTYPE svg PUBLIC "-//W3C//DTD SVG 20010904//EN"
 "http://www.w3.org/TR/2001/REC-SVG-20010904/DTD/svg10.dtd">
<svg version="1.0" xmlns="http://www.w3.org/2000/svg"
 width="128.000000pt" height="128.000000pt" viewBox="10 -139 128.000000 128.000000"
 preserveAspectRatio="xMidYMid meet">
<metadata>
Created by potrace 1.15, written by Peter Selinger 2001-2017
</metadata>
<g transform="scale(0.1175,-0.1175)"
fill="#000000" stroke="none">
<path d="M760 999 c-56 -34 -140 -121 -140 -146 0 -12 12 -44 26 -70 51 -94
17 -179 -133 -341 -45 -50 -83 -93 -83 -96 0 -3 29 -21 65 -41 85 -48 117 -46
129 10 13 63 35 121 60 157 l22 33 125 0 125 0 90 45 c97 49 110 69 80 116
-19 28 -42 30 -137 10 -37 -7 -78 -11 -93 -9 -41 8 -72 54 -85 126 -18 101
-17 104 25 67 34 -29 40 -31 86 -25 48 7 50 6 46 -16 -2 -20 -9 -24 -38 -26
-19 -1 -43 -2 -52 -2 -26 -1 -23 -46 4 -65 28 -20 127 -21 173 -2 73 31 67 89
-18 182 -97 106 -198 140 -277 93z"/>
<path d="M223 813 c-33 -6 -60 -46 -68 -99 -9 -64 26 -132 122 -234 101 -107
108 -107 217 3 102 103 131 158 123 229 -8 64 -27 94 -68 102 -34 7 -290 6
-326 -1z m208 -90 c20 -51 26 -58 52 -61 61 -7 59 -65 -3 -82 -33 -9 -39 -15
-44 -46 -5 -25 -14 -38 -32 -45 -33 -12 -50 -2 -72 42 -9 18 -29 40 -44 47
-52 25 -47 81 8 82 26 0 44 18 44 45 0 29 19 45 52 45 22 0 31 -7 39 -27z"/>
</g>
</svg>
