<?xml version="1.0" standalone="no"?>
<!DOCTYPE svg PUBLIC "-//W3C//DTD SVG 20010904//EN"
 "http://www.w3.org/TR/2001/REC-SVG-20010904/DTD/svg10.dtd">
<svg version="1.0" xmlns="http://www.w3.org/2000/svg"
 width="128.000000pt" height="128.000000pt" viewBox="10 -139 128.000000 128.000000"
 preserveAspectRatio="xMidYMid meet">
<metadata>
Created by potrace 1.15, written by Peter Selinger 2001-2017
</metadata>
<g transform="scale(0.1175,-0.1175)"
fill="#000000" stroke="none">
<path d="M213 1011 c-53 -25 -73 -62 -73 -140 0 -80 28 -150 93 -236 60 -78
93 -97 82 -47 -3 17 -1 48 4 70 34 124 155 183 278 136 57 -22 90 -12 108 30
24 57 -9 136 -73 178 -49 32 -142 20 -190 -25 -22 -21 -24 -21 -34 -3 -13 23
-84 56 -123 56 -16 0 -49 -9 -72 -19z"/>
<path d="M984 930 c-12 -5 -29 -19 -38 -31 -14 -21 -17 -22 -34 -6 -33 30 -79
41 -112 27 -32 -13 -44 -39 -38 -86 3 -31 24 -45 97 -64 57 -15 84 -44 111
-119 13 -34 28 -60 34 -58 18 6 115 146 125 182 12 44 -7 123 -33 140 -29 18
-87 25 -112 15z"/>
<path d="M693 738 c-13 -6 -23 -14 -23 -17 0 -3 -4 -12 -9 -19 -6 -11 -14 -8
-35 13 -26 26 -31 27 -111 24 -117 -5 -130 -19 -130 -132 0 -116 28 -170 156
-298 54 -55 102 -99 107 -99 15 0 215 225 236 265 25 48 31 109 16 178 -10 52
-15 59 -50 77 -43 22 -120 26 -157 8z"/>
</g>
</svg>
