<?xml version="1.0" standalone="no"?>
<!DOCTYPE svg PUBLIC "-//W3C//DTD SVG 20010904//EN"
 "http://www.w3.org/TR/2001/REC-SVG-20010904/DTD/svg10.dtd">
<svg version="1.0" xmlns="http://www.w3.org/2000/svg"
 width="128.000000pt" height="128.000000pt" viewBox="10 -139 128.000000 128.000000"
 preserveAspectRatio="xMidYMid meet">
<metadata>
Created by potrace 1.15, written by Peter Selinger 2001-2017
</metadata>
<g transform="scale(0.1175,-0.1175)"
fill="#000000" stroke="none">
<path d="M276 1095 c-4 -14 -31 -69 -62 -123 -69 -122 -89 -186 -75 -240 18
-65 71 -102 149 -102 93 0 160 40 183 107 19 60 -15 155 -108 296 -54 81 -78
98 -87 62z m0 -167 c-8 -73 -29 -188 -41 -220 -12 -30 -34 -20 -46 21 -9 30
-9 50 0 86 12 49 77 185 87 185 4 0 3 -33 0 -72z"/>
<path d="M937 1003 c-65 -128 -80 -178 -66 -220 33 -101 209 -97 240 6 10 33
9 49 -10 107 -20 68 -92 194 -110 194 -5 0 -29 -39 -54 -87z m42 -65 c-1 -58
-31 -174 -44 -168 -19 9 -11 142 10 178 26 43 35 40 34 -10z"/>
<path d="M650 800 c-24 -41 -60 -104 -80 -140 -146 -254 -158 -339 -63 -441
68 -73 103 -91 171 -90 157 2 255 90 256 231 1 105 -8 123 -232 500 -6 11 -19
-4 -52 -60z m30 -115 c0 -8 -9 -47 -20 -87 -11 -40 -29 -134 -40 -208 -21
-140 -36 -174 -64 -151 -8 7 -23 33 -32 57 -32 85 -1 196 97 343 40 60 59 75
59 46z"/>
</g>
</svg>
