<?xml version="1.0" standalone="no"?>
<!DOCTYPE svg PUBLIC "-//W3C//DTD SVG 20010904//EN"
 "http://www.w3.org/TR/2001/REC-SVG-20010904/DTD/svg10.dtd">
<svg version="1.0" xmlns="http://www.w3.org/2000/svg"
 width="128.000000pt" height="128.000000pt" viewBox="10 -139 128.000000 128.000000"
 preserveAspectRatio="xMidYMid meet">
<metadata>
Created by potrace 1.15, written by Peter Selinger 2001-2017
</metadata>
<g transform="scale(0.1175,-0.1175)"
fill="#000000" stroke="none">
<path d="M587 1129 c-113 -16 -233 -104 -257 -188 -6 -20 -15 -100 -20 -178
-12 -172 -21 -222 -60 -336 -23 -66 -28 -92 -20 -106 24 -47 195 -102 372
-121 159 -17 147 -22 150 62 l3 73 91 3 91 3 7 86 c8 93 18 123 42 123 29 0
27 32 -7 95 l-34 63 20 22 c26 29 25 104 -3 197 -16 53 -31 77 -64 109 -52 50
-111 81 -170 89 -23 4 -52 8 -63 9 -11 2 -46 -1 -78 -5z m197 -209 c60 -18 96
-59 96 -110 0 -47 -18 -60 -54 -37 -52 34 -232 49 -260 22 -8 -8 -17 -15 -21
-15 -4 0 -34 21 -68 47 -34 25 -63 48 -65 49 -2 1 1 12 8 23 7 14 21 21 43 22
18 1 43 5 57 10 33 11 215 4 264 -11z m-318 -231 c40 -44 87 -59 186 -59 51 0
108 4 126 9 27 8 39 6 67 -11 19 -11 35 -22 35 -24 0 -15 -37 -57 -58 -65 -27
-11 -264 5 -326 22 -53 14 -86 50 -86 92 0 30 14 57 30 57 4 0 15 -9 26 -21z"/>
</g>
</svg>
