<?xml version="1.0" standalone="no"?>
<!DOCTYPE svg PUBLIC "-//W3C//DTD SVG 20010904//EN"
 "http://www.w3.org/TR/2001/REC-SVG-20010904/DTD/svg10.dtd">
<svg version="1.0" xmlns="http://www.w3.org/2000/svg"
 width="128.000000pt" height="128.000000pt" viewBox="10 -139 128.000000 128.000000"
 preserveAspectRatio="xMidYMid meet">
<metadata>
Created by potrace 1.15, written by Peter Selinger 2001-2017
</metadata>
<g transform="scale(0.1175,-0.1175)"
fill="#000000" stroke="none">
<path d="M372 1029 c-119 -59 -164 -213 -107 -365 28 -74 83 -170 114 -198 18
-16 31 -18 88 -13 70 6 188 41 210 61 10 9 10 18 1 43 -7 18 -9 36 -4 40 4 4
94 10 200 13 142 4 197 9 209 19 23 19 37 75 37 152 0 168 -80 268 -215 269
-72 0 -114 -14 -175 -60 l-53 -39 -37 29 c-89 71 -187 89 -268 49z"/>
<path d="M148 603 c-22 -50 -35 -163 -24 -208 10 -41 91 -120 147 -144 125
-54 319 -51 514 8 115 35 132 37 157 15 24 -23 41 -8 80 70 32 62 98 214 98
223 0 7 -307 -8 -339 -16 -19 -5 -27 -15 -29 -34 -2 -20 -14 -33 -41 -46 -95
-49 -288 -74 -396 -51 -44 9 -68 21 -92 45 -32 32 -33 36 -33 109 0 89 -12 97
-42 29z"/>
</g>
</svg>
