<?xml version="1.0" standalone="no"?>
<!DOCTYPE svg PUBLIC "-//W3C//DTD SVG 20010904//EN"
 "http://www.w3.org/TR/2001/REC-SVG-20010904/DTD/svg10.dtd">
<svg version="1.0" xmlns="http://www.w3.org/2000/svg"
 width="120.000000pt" height="120.000000pt" viewBox="10 -139 128.000000 128.000000"
 preserveAspectRatio="xMidYMid meet">
<metadata>
Created by potrace 1.15, written by Peter Selinger 2001-2017
</metadata>
<g transform="scale(0.1175,-0.1175)"
fill="#000000" stroke="none">
<path d="M740 838 l-54 -51 23 -16 c13 -9 39 -31 57 -49 l32 -34 29 32 c15 18
40 38 56 46 15 8 27 19 27 25 0 13 -91 98 -105 98 -5 0 -35 -23 -65 -51z"/>
<path d="M338 798 c-19 -34 -32 -46 -67 -57 l-44 -14 34 -18 c19 -9 52 -36 74
-58 21 -23 42 -41 46 -41 4 0 10 15 13 34 7 38 28 59 71 73 l30 10 -35 8 c-44
9 -67 29 -75 66 -10 44 -21 43 -47 -3z"/>
<path d="M585 661 c-21 -63 -83 -122 -154 -146 l-53 -17 83 -42 c79 -39 85
-44 115 -101 17 -33 34 -71 38 -85 6 -22 10 -17 26 38 29 99 62 133 164 172
33 12 27 22 -24 39 -54 17 -103 63 -139 130 -18 34 -34 61 -36 61 -2 0 -11
-22 -20 -49z"/>
</g>
</svg>
