<?xml version="1.0" standalone="no"?>
<!DOCTYPE svg PUBLIC "-//W3C//DTD SVG 20010904//EN"
 "http://www.w3.org/TR/2001/REC-SVG-20010904/DTD/svg10.dtd">
<svg version="1.0" xmlns="http://www.w3.org/2000/svg"
 width="128.000000pt" height="128.000000pt" viewBox="10 -139 128.000000 128.000000"
 preserveAspectRatio="xMidYMid meet">
<metadata>
Created by potrace 1.15, written by Peter Selinger 2001-2017
</metadata>
<g transform="scale(0.1175,-0.1175)"
fill="#000000" stroke="none">
<path d="M674 1056 c-26 -19 -57 -91 -49 -116 9 -27 77 -70 112 -70 45 0 73
39 73 100 0 31 -6 56 -18 70 -23 28 -89 37 -118 16z"/>
<path d="M347 913 c-8 -16 -18 -39 -22 -53 -4 -14 -18 -51 -32 -82 -29 -66
-22 -88 27 -88 34 0 46 14 65 78 19 62 37 82 76 82 40 0 38 -20 -12 -97 -59
-91 -68 -122 -69 -250 l0 -113 -89 0 c-114 0 -149 -7 -157 -32 -13 -43 14 -52
181 -56 l154 -4 3 106 3 106 82 -55 82 -55 -56 -115 c-55 -112 -56 -116 -38
-135 33 -36 58 -26 97 43 50 85 88 168 88 193 0 31 -58 99 -122 145 -32 22
-58 46 -58 54 0 7 19 37 42 66 l42 54 7 -35 c9 -42 41 -70 80 -70 48 0 63 71
18 85 -14 5 -19 16 -19 39 0 35 -35 95 -73 127 -52 44 -178 89 -249 89 -31 0
-40 -5 -51 -27z"/>
<path d="M810 691 c0 -66 -3 -127 -6 -135 -4 -9 -23 -19 -45 -22 -22 -4 -38
-10 -37 -15 2 -4 47 -58 101 -119 l99 -112 69 76 c38 41 86 94 106 118 l35 43
-42 7 c-24 4 -45 10 -48 13 -7 6 -7 39 -2 160 l3 90 -49 7 c-27 3 -79 7 -116
7 l-68 1 0 -119z"/>
</g>
</svg>
