<?xml version="1.0" standalone="no"?>
<!DOCTYPE svg PUBLIC "-//W3C//DTD SVG 20010904//EN"
 "http://www.w3.org/TR/2001/REC-SVG-20010904/DTD/svg10.dtd">
<svg version="1.0" xmlns="http://www.w3.org/2000/svg"
 width="128.000000pt" height="128.000000pt" viewBox="10 -139 128.000000 128.000000"
 preserveAspectRatio="xMidYMid meet">
<metadata>
Created by potrace 1.15, written by Peter Selinger 2001-2017
</metadata>
<g transform="scale(0.1175,-0.1175)"
fill="#000000" stroke="none">
<path d="M511 914 c-99 -26 -187 -82 -294 -184 l-100 -96 112 -101 c122 -110
209 -163 312 -189 121 -31 265 1 394 87 84 57 205 169 205 191 0 45 -159 191
-265 243 -129 64 -249 80 -364 49z m234 -53 c46 -21 101 -79 123 -130 19 -45
20 -144 3 -194 -54 -157 -266 -205 -399 -91 -150 128 -105 369 78 425 48 14
153 9 195 -10z"/>
<path d="M576 825 c-78 -28 -135 -110 -136 -196 0 -66 44 -148 95 -176 47 -26
128 -31 178 -9 64 26 117 111 117 187 0 43 -29 112 -62 148 -55 58 -116 73
-192 46z m114 -60 c96 -50 108 -205 19 -251 -103 -53 -228 19 -216 125 5 49
29 86 77 119 38 26 79 28 120 7z"/>
<path d="M586 668 c-22 -31 -20 -75 3 -88 57 -30 118 4 106 59 -11 53 -80 70
-109 29z"/>
</g>
</svg>
