<?xml version="1.0" standalone="no"?>
<!DOCTYPE svg PUBLIC "-//W3C//DTD SVG 20010904//EN"
 "http://www.w3.org/TR/2001/REC-SVG-20010904/DTD/svg10.dtd">
<svg version="1.0" xmlns="http://www.w3.org/2000/svg"
 width="128.000000pt" height="128.000000pt" viewBox="10 -139 128.000000 128.000000"
 preserveAspectRatio="xMidYMid meet">
<metadata>
Created by potrace 1.15, written by Peter Selinger 2001-2017
</metadata>
<g transform="scale(0.1175,-0.1175)"
fill="#000000" stroke="none">
<path d="M500 1135 c-28 -30 -61 -32 -85 -5 -30 34 -42 24 -49 -40 -6 -47 -13
-67 -36 -90 -15 -16 -31 -44 -35 -62 -4 -18 -30 -86 -57 -152 -40 -96 -48
-123 -40 -141 10 -23 67 -55 97 -55 27 0 73 38 77 63 2 15 21 32 63 54 33 17
72 43 88 57 15 14 32 26 37 26 33 0 -14 -169 -55 -196 -13 -8 -48 -47 -78 -87
-41 -55 -56 -83 -61 -119 l-7 -48 -64 0 c-74 0 -75 -2 -75 -96 l0 -64 388 0
c213 0 417 -3 453 -6 77 -8 76 -9 86 98 l6 70 -81 -3 -82 -4 0 32 c0 18 -13
93 -29 166 -15 72 -34 165 -41 205 -6 40 -18 78 -24 85 -7 7 -19 30 -26 52
-18 56 -39 95 -50 95 -10 0 -31 17 -74 58 -15 14 -46 26 -82 33 -87 15 -91 17
-104 49 -20 47 -34 53 -60 25z m-70 -163 c0 -11 -31 -55 -50 -69 -8 -7 -23
-13 -33 -13 -19 0 -18 3 44 78 11 13 39 17 39 4z m-140 -255 c0 -15 -6 -23
-17 -23 -10 -1 -26 -5 -37 -9 -29 -13 -16 27 14 42 35 18 40 16 40 -10z"/>
</g>
</svg>
