<?xml version="1.0" standalone="no"?>
<!DOCTYPE svg PUBLIC "-//W3C//DTD SVG 20010904//EN"
 "http://www.w3.org/TR/2001/REC-SVG-20010904/DTD/svg10.dtd">
<svg version="1.0" xmlns="http://www.w3.org/2000/svg"
 width="128.000000pt" height="128.000000pt" viewBox="10 -139 128.000000 128.000000"
 preserveAspectRatio="xMidYMid meet">
<metadata>
Created by potrace 1.15, written by Peter Selinger 2001-2017
</metadata>
<g transform="scale(0.1175,-0.1175)"
fill="#000000" stroke="none">
<path d="M457 1030 c-89 -15 -123 -56 -114 -137 l4 -42 -74 -17 c-41 -10 -88
-26 -105 -37 l-31 -18 6 -73 c8 -86 59 -348 84 -426 18 -55 18 -55 62 -58 55
-4 320 34 431 62 81 20 85 22 88 50 2 19 6 25 11 17 6 -9 20 -3 51 21 85 65
99 103 100 271 0 59 3 107 7 107 4 0 24 -12 45 -26 38 -27 42 -36 38 -104 -2
-44 -58 -351 -65 -358 -2 -3 -52 1 -109 7 -79 10 -117 10 -159 1 -63 -13 -99
-35 -79 -48 18 -12 284 -35 352 -31 l55 4 18 70 c18 72 48 243 67 372 6 45 6
81 1 96 -14 36 -76 70 -127 70 l-44 0 -1 66 c0 90 -16 133 -53 142 -89 24
-363 35 -459 19z m428 -207 c-8 -173 -34 -392 -49 -421 -11 -20 -14 -9 -25 95
-14 143 -44 282 -71 338 -33 69 -68 76 -227 49 -52 -9 -96 -14 -98 -12 -3 2
-1 17 3 33 5 19 17 32 33 36 13 4 118 7 232 8 l209 1 -7 -127z m-203 -56 c17
-55 68 -344 68 -383 0 -18 -20 -23 -197 -53 -109 -18 -211 -32 -227 -30 -35 5
-39 15 -55 144 -7 50 -23 135 -36 190 -13 55 -21 103 -19 107 3 5 15 8 27 8
12 1 108 18 212 39 105 21 194 38 200 37 5 -2 17 -28 27 -59z"/>
</g>
</svg>
