<?xml version="1.0" standalone="no"?>
<!DOCTYPE svg PUBLIC "-//W3C//DTD SVG 20010904//EN"
 "http://www.w3.org/TR/2001/REC-SVG-20010904/DTD/svg10.dtd">
<svg version="1.0" xmlns="http://www.w3.org/2000/svg"
 width="128.000000pt" height="128.000000pt" viewBox="10 -139 128.000000 128.000000"
 preserveAspectRatio="xMidYMid meet">
<metadata>
Created by potrace 1.15, written by Peter Selinger 2001-2017
</metadata>
<g transform="scale(0.1175,-0.1175)"
fill="#000000" stroke="none">
<path d="M590 1107 c-72 -25 -101 -152 -63 -274 16 -50 16 -54 0 -71 -10 -9
-59 -37 -110 -62 -121 -59 -137 -84 -137 -218 0 -124 13 -152 99 -207 36 -23
107 -63 157 -88 l92 -46 113 30 c127 34 191 73 243 148 l29 42 -15 125 c-11
92 -20 132 -35 152 -11 14 -64 48 -117 75 l-98 48 7 57 c12 98 8 211 -10 238
-33 51 -96 72 -155 51z m116 -509 c76 -79 114 -126 114 -141 0 -7 -10 -17 -22
-22 -18 -8 -24 -20 -26 -50 -4 -57 -21 -65 -128 -65 -105 0 -124 10 -124 65 0
24 -7 39 -27 54 -23 19 -25 24 -15 46 11 25 149 175 161 175 4 0 34 -28 67
-62z"/>
</g>
</svg>
