<?xml version="1.0" standalone="no"?>
<!DOCTYPE svg PUBLIC "-//W3C//DTD SVG 20010904//EN"
 "http://www.w3.org/TR/2001/REC-SVG-20010904/DTD/svg10.dtd">
<svg version="1.0" xmlns="http://www.w3.org/2000/svg"
 width="128.000000pt" height="128.000000pt" viewBox="10 -139 128.000000 128.000000"
 preserveAspectRatio="xMidYMid meet">
<metadata>
Created by potrace 1.15, written by Peter Selinger 2001-2017
</metadata>
<g transform="scale(0.1175,-0.1175)"
fill="#000000" stroke="none">
<path d="M529 1071 c-108 -34 -188 -111 -247 -237 -23 -51 -27 -72 -27 -149 0
-81 3 -97 32 -158 40 -84 117 -163 197 -202 119 -58 298 -43 412 35 192 133
212 437 40 614 -100 102 -267 142 -407 97z m86 -32 c17 -27 -97 -89 -165 -89
-39 0 -38 13 5 47 56 45 144 68 160 42z m-29 -282 c66 -67 70 -117 14 -181
-38 -43 -91 -69 -124 -60 -38 9 -82 60 -96 110 -27 95 30 171 129 173 27 1 42
-8 77 -42z m402 -199 c4 -34 -19 -78 -64 -123 -41 -41 -61 -44 -70 -11 -9 37
12 89 52 130 43 44 77 46 82 4z m-288 -108 c27 -27 25 -56 -5 -85 -33 -33 -70
-32 -106 4 -52 53 -30 101 47 101 31 0 50 -6 64 -20z"/>
</g>
</svg>
