<?xml version="1.0" standalone="no"?>
<!DOCTYPE svg PUBLIC "-//W3C//DTD SVG 20010904//EN"
 "http://www.w3.org/TR/2001/REC-SVG-20010904/DTD/svg10.dtd">
<svg version="1.0" xmlns="http://www.w3.org/2000/svg"
 width="128.000000pt" height="128.000000pt" viewBox="10 -139 128.000000 128.000000"
 preserveAspectRatio="xMidYMid meet">
<metadata>
Created by potrace 1.15, written by Peter Selinger 2001-2017
</metadata>
<g transform="scale(0.1175,-0.1175)"
fill="#000000" stroke="none">
<path d="M666 1090 c-32 -22 -63 -40 -70 -40 -6 0 -48 11 -94 24 -86 25 -98
22 -88 -20 18 -71 -45 -162 -129 -183 -32 -8 -43 -15 -38 -24 4 -7 21 -31 36
-53 36 -54 45 -126 23 -190 -23 -69 -22 -71 37 -79 28 -4 61 -12 72 -17 40
-20 85 -72 91 -105 9 -50 45 -55 89 -13 28 27 44 34 87 38 36 3 67 -1 92 -12
65 -27 72 -23 79 39 8 80 31 111 107 147 36 17 66 32 67 32 1 1 -15 36 -37 77
-22 41 -40 85 -40 99 0 14 12 49 25 79 29 62 27 66 -46 74 -72 9 -99 28 -139
98 -20 35 -42 65 -50 66 -8 2 -41 -15 -74 -37z m158 -169 l58 -58 -46 -52
c-57 -64 -59 -91 -11 -121 19 -12 35 -29 35 -39 0 -9 -25 -41 -55 -71 l-54
-53 -45 41 c-25 23 -50 42 -56 42 -6 0 -33 -20 -59 -45 l-48 -45 -52 54 c-28
30 -51 59 -51 65 0 24 16 44 58 73 45 31 45 31 24 48 -11 9 -42 36 -69 59
l-48 43 60 53 c33 30 65 54 71 55 5 0 35 -22 66 -50 31 -27 58 -50 61 -50 2 0
24 25 47 55 23 30 45 55 49 55 4 0 33 -26 65 -59z"/>
<path d="M192 434 c-40 -33 -42 -39 -42 -89 0 -43 5 -60 26 -85 34 -39 105
-76 202 -102 105 -29 374 -31 472 -5 95 26 163 62 209 112 66 72 55 142 -31
186 -51 26 -68 14 -42 -30 26 -45 11 -79 -54 -118 -126 -75 -332 -97 -496 -54
-148 39 -204 91 -191 177 3 24 2 44 -3 44 -4 0 -27 -16 -50 -36z"/>
</g>
</svg>
