<?xml version="1.0" standalone="no"?>
<!DOCTYPE svg PUBLIC "-//W3C//DTD SVG 20010904//EN"
 "http://www.w3.org/TR/2001/REC-SVG-20010904/DTD/svg10.dtd">
<svg version="1.0" xmlns="http://www.w3.org/2000/svg"
 width="128.000000pt" height="128.000000pt" viewBox="10 -139 128.000000 128.000000"
 preserveAspectRatio="xMidYMid meet">
<metadata>
Created by potrace 1.15, written by Peter Selinger 2001-2017
</metadata>
<g transform="scale(0.1175,-0.1175)"
fill="#000000" stroke="none">
<path d="M470 1088 c-37 -19 -46 -28 -48 -55 -2 -18 3 -43 10 -57 38 -71 344
-383 457 -464 89 -64 176 -23 150 71 -5 19 -28 55 -50 81 -23 26 -40 48 -38
50 2 1 19 13 38 26 62 43 75 117 30 175 -14 17 -30 25 -52 25 -33 0 -45 -8
-207 -147 -60 -52 -80 -63 -80 -44 0 13 86 115 135 161 39 37 65 79 65 104 0
23 -57 83 -85 90 -28 7 -55 -4 -98 -40 -37 -31 -55 -30 -103 5 -57 41 -74 44
-124 19z"/>
<path d="M291 914 c-32 -26 -48 -76 -37 -112 4 -11 20 -37 37 -58 34 -43 32
-61 -12 -112 -38 -42 -39 -93 -4 -127 51 -52 116 -22 253 117 l83 84 -57 62
c-81 90 -181 172 -209 172 -13 0 -37 -12 -54 -26z"/>
<path d="M579 608 c-61 -63 -129 -150 -153 -196 -16 -31 -16 -36 -2 -57 23
-34 88 -53 129 -36 62 25 67 25 67 2 0 -48 -71 -133 -127 -152 -56 -18 -35
-59 23 -45 40 10 118 95 139 151 10 28 22 54 26 59 4 4 25 -2 47 -14 48 -27
77 -22 121 19 42 39 40 67 -12 137 -44 60 -176 184 -195 184 -6 0 -34 -24 -63
-52z"/>
</g>
</svg>
