<?xml version="1.0" standalone="no"?>
<!DOCTYPE svg PUBLIC "-//W3C//DTD SVG 20010904//EN"
 "http://www.w3.org/TR/2001/REC-SVG-20010904/DTD/svg10.dtd">
<svg version="1.0" xmlns="http://www.w3.org/2000/svg"
 width="128.000000pt" height="128.000000pt" viewBox="10 -139 128.000000 128.000000"
 preserveAspectRatio="xMidYMid meet">
<metadata>
Created by potrace 1.15, written by Peter Selinger 2001-2017
</metadata>
<g transform="scale(0.1175,-0.1175)"
fill="#000000" stroke="none">
<path d="M382 1103 c-33 -42 -22 -42 -124 0 -40 16 -44 3 -20 -56 12 -29 22
-58 22 -64 0 -6 -17 -22 -37 -34 l-36 -23 39 -34 c36 -32 38 -35 20 -46 -89
-55 -106 -67 -106 -80 0 -14 22 -21 90 -28 25 -3 25 -3 22 -100 -2 -60 1 -99
8 -103 14 -9 73 29 106 68 26 31 27 33 20 138 -7 121 -9 118 84 164 90 46 130
77 151 118 33 65 11 87 -43 42 -48 -41 -75 -31 -112 43 -22 42 -47 41 -84 -5z"/>
<path d="M757 946 l-282 -143 2 -36 c1 -20 20 -118 42 -218 31 -137 38 -186
30 -196 -7 -7 -36 -20 -65 -29 -30 -8 -54 -19 -54 -23 0 -17 342 -201 373
-201 7 0 34 35 59 78 61 101 163 311 155 318 -3 3 -27 -4 -52 -15 -59 -26 -76
-26 -109 0 -25 20 -206 282 -206 299 0 4 90 67 199 140 110 72 207 140 217
151 41 45 -38 13 -309 -125z"/>
</g>
</svg>
