<?xml version="1.0" standalone="no"?>
<!DOCTYPE svg PUBLIC "-//W3C//DTD SVG 20010904//EN"
 "http://www.w3.org/TR/2001/REC-SVG-20010904/DTD/svg10.dtd">
<svg version="1.0" xmlns="http://www.w3.org/2000/svg"
 width="148.000000pt" height="148.000000pt" viewBox="10 -139 128.000000 128.000000"
 preserveAspectRatio="xMidYMid meet">
<metadata>
Created by potrace 1.15, written by Peter Selinger 2001-2017
</metadata>
<g transform="scale(0.1175,-0.1175)"
fill="#000000" stroke="none">
<path d="M670 1252 c-19 -9 -43 -32 -54 -51 -25 -44 -33 -170 -16 -262 11 -56
11 -71 0 -84 -7 -9 -57 -38 -111 -66 -108 -56 -143 -88 -160 -152 -16 -58 -7
-219 14 -251 22 -33 82 -73 196 -131 80 -41 106 -49 167 -53 42 -3 87 1 110 8
46 15 173 77 267 132 l67 39 0 127 c0 103 -4 135 -19 168 -26 57 -67 71 -156
54 -89 -17 -98 -30 -103 -146 l-4 -94 -102 0 c-60 0 -111 -5 -125 -13 -14 -6
-38 -35 -55 -64 -17 -29 -39 -60 -48 -70 -17 -16 -18 -16 -18 13 0 43 38 149
60 169 13 12 44 18 102 22 46 3 89 10 96 16 10 8 12 26 7 68 -8 71 0 87 70
139 30 22 55 45 55 51 0 6 -10 19 -22 28 -20 17 -21 25 -19 162 2 163 -8 196
-68 236 -41 27 -84 29 -131 5z"/>
</g>
</svg>
