<?xml version="1.0" standalone="no"?>
<!DOCTYPE svg PUBLIC "-//W3C//DTD SVG 20010904//EN"
 "http://www.w3.org/TR/2001/REC-SVG-20010904/DTD/svg10.dtd">
<svg version="1.0" xmlns="http://www.w3.org/2000/svg"
 width="128.000000pt" height="128.000000pt" viewBox="10 -139 128.000000 128.000000"
 preserveAspectRatio="xMidYMid meet">
<metadata>
Created by potrace 1.15, written by Peter Selinger 2001-2017
</metadata>
<g transform="scale(0.1125,-0.1125)"
fill="#000000" stroke="none">
<path d="M704 1129 c-82 -53 -137 -60 -258 -29 -68 18 -90 20 -96 11 -4 -7
-10 -41 -13 -76 -7 -75 -35 -135 -76 -164 -16 -12 -60 -34 -98 -51 -37 -16
-67 -34 -65 -41 2 -6 16 -31 33 -55 17 -25 37 -60 45 -79 19 -46 18 -146 -3
-212 -12 -37 -14 -56 -6 -64 5 -5 40 -16 77 -24 121 -25 171 -68 222 -192 13
-32 29 -57 35 -55 6 1 37 20 68 41 124 84 167 92 270 46 74 -33 72 -35 96 74
22 97 65 146 170 192 41 18 75 37 75 42 0 5 -14 27 -31 49 -18 22 -38 56 -45
76 -19 54 -17 187 4 248 10 28 16 56 14 63 -2 6 -23 11 -46 11 -58 0 -130 23
-171 54 -22 17 -47 54 -70 101 -24 51 -41 75 -53 75 -9 0 -45 -18 -78 -41z
m77 -219 c-96 -129 -94 -145 12 -135 l71 7 -15 -23 c-65 -101 -236 -393 -261
-445 -51 -108 -59 -88 -66 152 l-4 181 -56 -14 c-35 -9 -58 -11 -64 -5 -7 7 5
43 31 104 56 126 96 194 128 215 36 24 124 41 210 42 l73 1 -59 -80z"/>
</g>
</svg>
