<?xml version="1.0" standalone="no"?>
<!DOCTYPE svg PUBLIC "-//W3C//DTD SVG 20010904//EN"
 "http://www.w3.org/TR/2001/REC-SVG-20010904/DTD/svg10.dtd">
<svg version="1.0" xmlns="http://www.w3.org/2000/svg"
 width="128.000000pt" height="128.000000pt" viewBox="10 -139 128.000000 128.000000"
 preserveAspectRatio="xMidYMid meet">
<metadata>
Created by potrace 1.15, written by Peter Selinger 2001-2017
</metadata>
<g transform="scale(0.1175,-0.1175)"
fill="#000000" stroke="none">
<path d="M622 1148 c-5 -7 -14 -33 -19 -58 -6 -33 -15 -48 -33 -56 -14 -6 -42
-20 -63 -30 -41 -19 -156 -126 -201 -186 -16 -21 -34 -55 -41 -75 -13 -38 -14
-38 -77 -43 -59 -5 -63 -7 -66 -31 -4 -35 17 -55 67 -63 42 -6 71 -35 71 -69
0 -28 81 -137 142 -192 28 -26 73 -57 98 -70 59 -30 96 -68 104 -105 3 -19 15
-34 30 -41 37 -17 56 -5 56 34 0 40 30 71 109 113 81 43 155 116 190 186 17
34 31 71 31 83 0 29 28 53 71 61 38 7 69 30 69 51 0 21 -38 53 -63 53 -28 0
-101 73 -150 150 -47 74 -69 93 -157 133 -93 43 -114 64 -105 107 11 48 -34
82 -63 48z m132 -232 c66 -39 133 -103 155 -149 16 -34 21 -63 21 -131 0 -149
-28 -199 -140 -254 -48 -24 -67 -27 -150 -27 -75 0 -104 4 -135 20 -47 24
-105 102 -136 184 -18 50 -20 62 -9 108 16 74 62 161 109 207 78 76 197 94
285 42z"/>
<path d="M592 854 c-45 -31 -55 -68 -47 -180 8 -119 2 -135 -55 -158 -22 -9
-40 -21 -40 -28 0 -21 62 -57 115 -67 68 -13 273 13 297 37 14 14 1 32 -21 32
-28 0 -68 43 -80 86 -6 22 -11 67 -11 102 0 139 -81 230 -158 176z"/>
</g>
</svg>
