<?xml version="1.0" standalone="no"?>
<!DOCTYPE svg PUBLIC "-//W3C//DTD SVG 20010904//EN"
 "http://www.w3.org/TR/2001/REC-SVG-20010904/DTD/svg10.dtd">
<svg version="1.0" xmlns="http://www.w3.org/2000/svg"
 width="128.000000pt" height="128.000000pt" viewBox="10 -139 128.000000 128.000000"
 preserveAspectRatio="xMidYMid meet">
<metadata>
Created by potrace 1.15, written by Peter Selinger 2001-2017
</metadata>
<g transform="scale(0.1175,-0.1175)"
fill="#000000" stroke="none">
<path d="M407 1046 c-70 -58 -100 -117 -101 -200 l-1 -61 68 -34 c38 -18 65
-37 60 -42 -14 -14 -154 12 -175 33 -19 19 -19 27 -2 121 8 38 -11 34 -31 -9
-21 -44 -29 -95 -21 -128 9 -35 47 -52 157 -72 52 -9 97 -20 102 -23 4 -4 -46
-19 -111 -34 -153 -35 -166 -44 -159 -111 5 -58 38 -149 66 -186 32 -41 36
-14 8 55 -42 102 -35 130 41 169 48 24 144 56 170 56 23 0 -2 -24 -94 -91
l-83 -60 20 -52 c35 -88 71 -146 117 -188 24 -23 46 -38 49 -35 3 3 -18 42
-47 87 -32 50 -54 97 -58 121 -5 40 -4 42 77 119 46 44 87 79 92 79 5 0 6 -18
3 -40 -4 -27 -2 -45 7 -56 7 -9 12 -31 10 -49 -1 -18 6 -50 15 -71 l18 -39 6
52 c9 85 42 98 54 23 3 -22 10 -40 15 -40 14 0 21 30 30 120 5 45 11 84 14 87
15 15 145 -99 163 -143 14 -34 7 -77 -19 -118 -96 -146 -102 -167 -28 -101 35
32 102 145 130 218 10 26 7 29 -62 76 -40 27 -81 58 -91 70 -19 21 -19 21 7
21 38 0 176 -46 198 -66 26 -23 24 -49 -11 -143 -16 -45 -26 -81 -21 -81 28 0
87 119 97 196 9 73 -7 85 -145 118 -61 14 -119 26 -129 26 -34 1 11 17 78 29
102 17 169 40 180 61 16 30 12 113 -7 140 l-18 25 -10 -65 c-9 -61 -12 -66
-45 -82 -19 -9 -62 -19 -95 -23 l-60 -6 26 23 c15 13 43 35 62 51 48 36 65 91
48 148 -14 45 -83 121 -141 153 l-34 20 24 -31 c105 -128 110 -136 110 -168 0
-44 -27 -75 -118 -136 -93 -62 -98 -55 -52 70 33 91 38 156 15 201 -25 49 -51
60 -138 60 -91 0 -111 -13 -142 -93 l-18 -48 39 -114 c21 -63 35 -117 31 -121
-4 -4 -18 -2 -31 4 -36 16 -156 132 -162 156 -8 31 8 64 66 140 28 38 49 70
47 73 -2 2 -29 -17 -60 -41z"/>
</g>
</svg>
