<?xml version="1.0" standalone="no"?>
<!DOCTYPE svg PUBLIC "-//W3C//DTD SVG 20010904//EN"
 "http://www.w3.org/TR/2001/REC-SVG-20010904/DTD/svg10.dtd">
<svg version="1.0" xmlns="http://www.w3.org/2000/svg"
 width="128.000000pt" height="128.000000pt" viewBox="10 -139 128.000000 128.000000"
 preserveAspectRatio="xMidYMid meet">
<metadata>
Created by potrace 1.15, written by Peter Selinger 2001-2017
</metadata>
<g transform="scale(0.1175,-0.1175)"
fill="#000000" stroke="none">
<path d="M311 1062 c-24 -46 -44 -220 -45 -398 -1 -209 -2 -207 92 -252 30
-14 60 -36 69 -49 9 -13 18 -61 23 -116 4 -50 11 -100 15 -109 12 -30 34 -20
44 20 30 114 29 112 30 52 1 -63 18 -103 45 -108 28 -6 37 17 30 78 -5 43 -3
59 9 68 22 18 47 -21 47 -71 0 -41 14 -77 31 -77 14 0 35 56 45 120 l8 55 6
-73 c12 -140 55 -107 69 52 10 116 20 130 123 172 l71 28 -8 101 c-3 55 -12
189 -19 297 -12 194 -20 228 -51 228 -6 0 -17 -11 -23 -25 -15 -32 -36 -32
-173 2 l-108 26 -135 -33 c-74 -18 -142 -30 -150 -27 -9 4 -15 16 -13 28 3 29
-19 36 -32 11z m639 -418 c0 -26 -8 -59 -17 -75 -36 -61 -130 -102 -197 -85
-28 7 -59 56 -54 87 4 23 196 118 241 119 26 0 27 -2 27 -46z m-429 -24 c81
-30 84 -33 73 -72 -12 -41 -60 -68 -124 -68 -59 0 -109 27 -132 70 -23 44 -24
96 -1 108 19 11 100 -6 184 -38z m156 -156 c13 -21 23 -44 23 -51 0 -16 -121
-22 -127 -6 -9 23 50 107 71 100 6 -2 21 -21 33 -43z"/>
</g>
</svg>
