<?xml version="1.0" standalone="no"?>
<!DOCTYPE svg PUBLIC "-//W3C//DTD SVG 20010904//EN"
 "http://www.w3.org/TR/2001/REC-SVG-20010904/DTD/svg10.dtd">
<svg version="1.0" xmlns="http://www.w3.org/2000/svg"
 width="128.000000pt" height="128.000000pt" viewBox="10 -139 128.000000 128.000000"
 preserveAspectRatio="xMidYMid meet">
<metadata>
Created by potrace 1.15, written by Peter Selinger 2001-2017
</metadata>
<g transform="scale(0.1175,-0.1175)"
fill="#000000" stroke="none">
<path d="M255 1135 c-14 -46 -32 -70 -55 -75 -24 -6 -24 -7 8 -14 22 -5 37
-17 45 -34 6 -15 12 -29 14 -31 1 -2 21 13 43 33 22 20 46 36 53 36 6 0 3 6
-8 12 -11 6 -36 29 -57 52 -33 37 -37 39 -43 21z"/>
<path d="M200 930 c0 -16 5 -30 10 -30 6 0 10 14 10 30 0 17 -4 30 -10 30 -5
0 -10 -13 -10 -30z"/>
<path d="M530 934 c-25 -7 -67 -13 -95 -13 -27 -1 -74 -4 -102 -7 l-53 -7 0
-126 c0 -227 27 -287 221 -486 l137 -139 48 39 c27 21 87 77 134 124 139 140
190 265 190 468 l0 112 -32 5 c-323 49 -372 52 -448 30z"/>
<path d="M121 851 c-18 -11 -6 -48 21 -62 43 -23 89 26 56 59 -14 14 -57 16
-77 3z"/>
<path d="M1020 408 c-24 -19 -24 -20 -5 -34 25 -18 28 -18 43 7 12 18 12 24 0
35 -11 10 -17 9 -38 -8z"/>
</g>
</svg>
