<?xml version="1.0" standalone="no"?>
<!DOCTYPE svg PUBLIC "-//W3C//DTD SVG 20010904//EN"
 "http://www.w3.org/TR/2001/REC-SVG-20010904/DTD/svg10.dtd">
<svg version="1.0" xmlns="http://www.w3.org/2000/svg"
 width="128.000000pt" height="128.000000pt" viewBox="10 -139 128.000000 128.000000"
 preserveAspectRatio="xMidYMid meet">
<metadata>
Created by potrace 1.15, written by Peter Selinger 2001-2017
</metadata>
<g transform="scale(0.1175,-0.1175)"
fill="#000000" stroke="none">
<path d="M609 1138 c-7 -12 -18 -83 -25 -158 -17 -182 -46 -254 -149 -370 -25
-29 -62 -76 -82 -107 -88 -132 -33 -291 106 -310 55 -7 81 20 81 85 0 28 8 61
19 82 40 72 50 96 56 133 3 21 29 70 59 115 66 96 79 136 74 220 -3 52 -12 84
-41 143 -21 41 -40 93 -44 115 -11 72 -32 93 -54 52z"/>
<path d="M786 657 c-19 -23 -51 -69 -71 -102 l-36 -60 28 -12 c38 -17 136 -16
177 1 71 30 85 93 35 151 -27 31 -76 65 -93 65 -2 0 -20 -19 -40 -43z"/>
<path d="M678 413 c-10 -2 -18 -11 -18 -18 0 -7 -12 -23 -27 -35 -26 -20 -27
-22 -10 -35 10 -7 47 -18 83 -24 87 -16 133 -3 196 57 43 40 47 47 31 53 -20
8 -227 10 -255 2z"/>
<path d="M606 251 c-10 -15 15 -48 50 -67 37 -20 110 -15 150 11 34 22 22 32
-46 44 -111 19 -148 22 -154 12z"/>
</g>
</svg>
