<?xml version="1.0" standalone="no"?>
<!DOCTYPE svg PUBLIC "-//W3C//DTD SVG 20010904//EN"
 "http://www.w3.org/TR/2001/REC-SVG-20010904/DTD/svg10.dtd">
<svg version="1.0" xmlns="http://www.w3.org/2000/svg"
 width="128.000000pt" height="128.000000pt" viewBox="10 -139 128.000000 128.000000"
 preserveAspectRatio="xMidYMid meet">
<metadata>
Created by potrace 1.15, written by Peter Selinger 2001-2017
</metadata>
<g transform="scale(0.1175,-0.1175)"
fill="#000000" stroke="none">
<path d="M342 1066 c-48 -22 -135 -109 -161 -162 -45 -88 -25 -185 46 -227 40
-23 149 -26 170 -4 13 13 13 18 -1 45 -22 42 -20 84 5 116 16 21 29 26 63 26
23 0 51 -7 62 -15 48 -37 71 -4 61 86 -12 102 -53 141 -150 146 -39 2 -74 -2
-95 -11z"/>
<path d="M897 1046 c-92 -25 -131 -72 -146 -176 -8 -59 -12 -68 -52 -103 l-44
-39 45 -39 c25 -21 51 -39 58 -39 7 0 28 15 45 34 27 29 42 35 92 41 33 4 72
13 86 21 42 21 97 90 105 129 11 61 -7 61 -81 0 l-69 -56 -49 49 -49 49 66 63
c36 34 63 67 60 71 -6 11 -7 11 -67 -5z"/>
<path d="M442 808 c-29 -29 -9 -63 143 -233 134 -151 241 -260 298 -306 39
-31 57 -39 91 -39 23 0 47 5 54 12 16 16 15 53 -3 88 -16 31 -395 378 -489
447 -62 46 -75 50 -94 31z"/>
<path d="M471 540 c-44 -30 -83 -44 -154 -55 -78 -12 -143 -102 -135 -184 l3
-33 67 61 67 62 35 -38 c20 -21 36 -44 36 -52 0 -7 -18 -35 -40 -61 -22 -26
-40 -53 -40 -59 0 -6 14 -11 30 -11 81 0 151 65 170 157 17 83 28 107 61 139
16 15 29 33 29 40 0 14 -60 64 -76 64 -5 0 -29 -14 -53 -30z"/>
</g>
</svg>
