<?xml version="1.0" standalone="no"?>
<!DOCTYPE svg PUBLIC "-//W3C//DTD SVG 20010904//EN"
 "http://www.w3.org/TR/2001/REC-SVG-20010904/DTD/svg10.dtd">
<svg version="1.0" xmlns="http://www.w3.org/2000/svg"
 width="128.000000pt" height="128.000000pt" viewBox="10 -139 128.000000 128.000000"
 preserveAspectRatio="xMidYMid meet">
<metadata>
Created by potrace 1.15, written by Peter Selinger 2001-2017
</metadata>
<g transform="scale(0.1175,-0.1175)"
fill="#000000" stroke="none">
<path d="M336 1103 c3 -21 19 -78 35 -127 15 -49 26 -93 23 -98 -3 -4 -29 -8
-58 -8 -31 0 -60 -6 -72 -15 -18 -15 -17 -17 29 -58 26 -23 47 -49 47 -57 0
-19 -41 -46 -144 -97 -44 -22 -75 -42 -70 -45 5 -3 41 -15 79 -26 87 -27 133
-54 140 -85 4 -15 -6 -57 -29 -115 -42 -108 -58 -172 -43 -172 5 0 72 36 147
80 156 91 180 97 180 46 0 -69 47 -70 70 -1 6 18 19 36 28 40 11 5 74 -22 186
-79 93 -48 171 -84 174 -81 3 3 -20 72 -51 155 -32 83 -57 152 -57 155 0 3 24
5 54 5 30 0 58 5 62 11 3 6 -17 34 -45 63 -28 28 -51 55 -51 58 0 4 41 42 92
85 l91 78 -101 5 c-136 7 -146 15 -114 105 12 35 22 69 22 74 0 18 -27 12 -93
-20 -92 -46 -104 -40 -161 71 -26 49 -51 90 -55 90 -5 0 -30 -25 -56 -55 -34
-40 -53 -55 -72 -55 -16 0 -54 21 -98 55 -86 66 -98 69 -89 18z m413 -212 c75
-39 106 -103 99 -209 -3 -54 -8 -68 -27 -81 -58 -40 -71 -59 -71 -105 0 -64
-16 -76 -105 -76 -104 0 -105 0 -105 77 0 62 -1 65 -32 81 -17 9 -42 27 -55
39 -34 33 -32 109 6 188 31 66 55 92 97 105 43 14 148 3 193 -19z"/>
<path d="M521 711 c-13 -3 -29 -14 -35 -23 -14 -22 15 -54 57 -64 26 -5 35 -2
54 20 13 15 23 38 23 52 0 21 -4 24 -37 23 -21 -1 -49 -4 -62 -8z"/>
<path d="M693 713 c-22 -8 -15 -51 12 -69 29 -19 60 -11 81 22 13 19 14 27 4
39 -12 14 -70 19 -97 8z"/>
<path d="M633 604 c-8 -21 13 -42 28 -27 13 13 5 43 -11 43 -6 0 -13 -7 -17
-16z"/>
</g>
</svg>
