<?xml version="1.0" standalone="no"?>
<!DOCTYPE svg PUBLIC "-//W3C//DTD SVG 20010904//EN"
 "http://www.w3.org/TR/2001/REC-SVG-20010904/DTD/svg10.dtd">
<svg version="1.0" xmlns="http://www.w3.org/2000/svg"
 width="128.000000pt" height="128.000000pt" viewBox="10 -139 128.000000 128.000000"
 preserveAspectRatio="xMidYMid meet">
<metadata>
Created by potrace 1.15, written by Peter Selinger 2001-2017
</metadata>
<g transform="scale(0.1175,-0.1175)"
fill="#000000" stroke="none">
<path d="M563 1120 c-49 -10 -134 -45 -184 -76 -54 -34 -114 -109 -161 -203
-35 -71 -42 -96 -46 -160 -5 -82 9 -150 35 -176 30 -30 38 -1 39 133 0 115 2
132 26 184 75 163 265 263 439 230 75 -14 156 -51 200 -93 l32 -30 -33 -34
c-19 -19 -41 -37 -50 -40 -10 -3 -46 4 -81 15 -179 56 -289 23 -367 -108 -25
-43 -27 -54 -25 -143 l2 -96 -39 -38 c-22 -22 -40 -43 -40 -47 0 -17 40 -7 68
17 17 14 37 25 46 25 8 0 39 -17 67 -39 50 -38 106 -61 147 -61 12 0 52 10 89
22 55 18 78 32 120 76 41 42 61 55 90 59 48 6 69 -13 59 -54 -10 -41 -125
-146 -199 -183 -92 -45 -154 -49 -242 -15 -159 62 -180 63 -237 7 -35 -33 -36
-66 -2 -89 26 -16 27 -16 45 6 11 13 19 32 19 42 0 26 13 24 122 -12 84 -28
102 -31 180 -27 108 7 193 44 273 119 76 72 112 149 126 264 13 120 31 135 66
57 15 -33 17 -35 20 -14 11 57 -54 152 -103 152 -28 0 -33 -15 -36 -120 l-3
-75 -32 -3 c-42 -4 -67 22 -87 89 -31 103 -25 115 102 212 35 26 62 53 59 60
-2 6 -18 14 -36 18 -17 4 -55 22 -85 42 -148 98 -263 130 -383 107z m18 -375
c43 -63 159 -274 159 -289 0 -3 -37 -6 -81 -6 -64 0 -89 4 -114 20 -68 42
-121 139 -110 199 12 65 67 155 89 148 6 -2 32 -34 57 -72z"/>
<path d="M522 668 c-17 -66 21 -128 79 -128 38 0 37 18 -4 95 -38 71 -62 81
-75 33z"/>
</g>
</svg>
