<?xml version="1.0" standalone="no"?>
<!DOCTYPE svg PUBLIC "-//W3C//DTD SVG 20010904//EN"
 "http://www.w3.org/TR/2001/REC-SVG-20010904/DTD/svg10.dtd">
<svg version="1.0" xmlns="http://www.w3.org/2000/svg"
 width="128.000000pt" height="128.000000pt" viewBox="10 -139 128.000000 128.000000"
 preserveAspectRatio="xMidYMid meet">
<metadata>
Created by potrace 1.15, written by Peter Selinger 2001-2017
</metadata>
<g transform="scale(0.1175,-0.1175)"
fill="#000000" stroke="none">
<path d="M456 1050 c-3 -8 -15 -53 -27 -100 -25 -97 -44 -140 -62 -140 -6 1
-43 23 -81 50 -39 27 -73 47 -77 45 -4 -3 -10 -53 -14 -111 l-7 -106 -39 5
c-26 3 -39 1 -39 -7 0 -9 110 -188 126 -205 2 -2 30 21 62 51 71 68 109 88
178 95 146 15 267 -92 267 -236 0 -56 -15 -97 -56 -153 -11 -15 -17 -31 -13
-35 9 -9 302 -10 311 -1 4 3 1 15 -7 27 -12 19 -6 28 77 112 l90 91 -173 -6
-172 -6 69 92 c38 51 69 93 68 94 -1 1 -39 -3 -83 -8 -45 -6 -89 -8 -98 -5
-24 9 -16 39 50 209 55 138 73 198 59 198 -7 0 -65 -40 -209 -143 -43 -31 -84
-57 -92 -57 -17 0 -27 22 -70 160 -18 58 -35 98 -38 90z"/>
<path d="M933 843 c9 -2 25 -2 35 0 9 3 1 5 -18 5 -19 0 -27 -2 -17 -5z"/>
<path d="M988 800 c-76 -7 -92 -18 -108 -66 -6 -19 -16 -34 -21 -34 -5 0 -9
-4 -9 -10 0 -16 62 -11 105 9 43 20 139 112 115 110 -8 -1 -45 -5 -82 -9z"/>
<path d="M440 578 c-83 -23 -139 -100 -140 -189 0 -93 100 -192 195 -192 86 0
180 85 192 172 11 85 -58 187 -144 210 -45 13 -56 13 -103 -1z m89 -57 c10 -6
12 -21 8 -49 l-5 -41 47 -3 c43 -3 46 -5 46 -32 0 -29 -6 -34 -57 -55 -16 -6
-28 -18 -28 -29 0 -29 -29 -62 -55 -62 -23 0 -26 5 -39 62 -5 20 -14 29 -34
33 -46 10 -57 20 -57 56 0 34 1 34 45 34 43 0 45 1 48 32 5 47 48 75 81 54z"/>
</g>
</svg>
