<?xml version="1.0" standalone="no"?>
<!DOCTYPE svg PUBLIC "-//W3C//DTD SVG 20010904//EN"
 "http://www.w3.org/TR/2001/REC-SVG-20010904/DTD/svg10.dtd">
<svg version="1.0" xmlns="http://www.w3.org/2000/svg"
 width="128.000000pt" height="128.000000pt" viewBox="10 -139 128.000000 128.000000"
 preserveAspectRatio="xMidYMid meet">
<metadata>
Created by potrace 1.15, written by Peter Selinger 2001-2017
</metadata>
<g transform="scale(0.1175,-0.1175)"
fill="#000000" stroke="none">
<path d="M749 1011 c-122 -79 -458 -430 -504 -528 -9 -19 -15 -46 -13 -61 l3
-27 253 -3 252 -2 0 -50 c0 -27 4 -60 10 -74 9 -24 15 -26 64 -26 65 0 79 13
86 84 l5 51 50 10 50 11 0 48 c0 54 -7 61 -69 71 l-39 6 6 260 6 259 -57 0
c-47 0 -67 -6 -103 -29z m-15 -183 c3 -13 6 -89 6 -170 l0 -148 -160 0 c-88 0
-160 2 -160 5 0 3 37 46 83 97 45 50 110 124 145 165 35 40 67 73 72 73 4 0
10 -10 14 -22z"/>
</g>
</svg>
