<?xml version="1.0" standalone="no"?>
<!DOCTYPE svg PUBLIC "-//W3C//DTD SVG 20010904//EN"
 "http://www.w3.org/TR/2001/REC-SVG-20010904/DTD/svg10.dtd">
<svg version="1.0" xmlns="http://www.w3.org/2000/svg"
 width="128.000000pt" height="128.000000pt" viewBox="10 -139 128.000000 128.000000"
 preserveAspectRatio="xMidYMid meet">
<metadata>
Created by potrace 1.15, written by Peter Selinger 2001-2017
</metadata>
<g transform="scale(0.1175,-0.1175)"
fill="#000000" stroke="none">
<path d="M397 1112 c-10 -10 -17 -29 -17 -42 0 -35 61 -86 118 -99 27 -5 119
-37 205 -71 86 -33 165 -60 175 -60 10 0 28 12 41 26 15 18 30 24 49 22 31 -3
59 -46 49 -73 -7 -16 -17 -17 -122 -10 -114 7 -115 7 -115 -15 0 -12 -10 -40
-22 -62 l-23 -40 38 -30 c29 -24 37 -37 37 -63 0 -48 -41 -79 -93 -71 -49 8
-91 -16 -136 -80 -37 -51 -84 -84 -119 -84 -80 0 -122 91 -68 145 21 21 32 24
97 23 81 -2 116 11 158 56 40 43 34 87 -18 137 -40 39 -42 44 -38 83 3 22 7
52 9 66 2 20 -4 28 -32 41 -19 9 -46 19 -59 20 -23 4 -25 0 -37 -67 -15 -90
-56 -168 -146 -280 -139 -172 -139 -235 2 -297 104 -46 429 -159 440 -152 6 4
8 31 4 74 -8 82 1 102 89 202 105 120 155 188 169 227 7 21 13 81 13 138 0
137 -2 139 -165 203 -162 65 -418 151 -446 151 -11 0 -28 -8 -37 -18z"/>
<path d="M640 814 c-10 -18 -11 -30 -3 -42 14 -24 62 -22 79 3 12 18 11 24 -2
43 -21 30 -57 28 -74 -4z"/>
<path d="M721 607 c-16 -16 -14 -34 5 -41 21 -8 34 1 34 24 0 22 -23 33 -39
17z"/>
<path d="M434 466 c-10 -27 1 -51 24 -54 28 -4 52 14 52 38 0 30 -66 43 -76
16z"/>
</g>
</svg>
