<?xml version="1.0" standalone="no"?>
<!DOCTYPE svg PUBLIC "-//W3C//DTD SVG 20010904//EN"
 "http://www.w3.org/TR/2001/REC-SVG-20010904/DTD/svg10.dtd">
<svg version="1.0" xmlns="http://www.w3.org/2000/svg"
 width="128.000000pt" height="128.000000pt" viewBox="10 -139 128.000000 128.000000"
 preserveAspectRatio="xMidYMid meet">
<metadata>
Created by potrace 1.15, written by Peter Selinger 2001-2017
</metadata>
<g transform="scale(0.1175,-0.1175)"
fill="#000000" stroke="none">
<path d="M665 994 c-59 -76 -64 -91 -33 -103 38 -14 46 -31 53 -124 l7 -89 40
74 c22 40 53 87 70 105 26 27 29 35 18 48 -7 8 -23 15 -36 15 -28 0 -54 34
-55 75 -1 66 -11 66 -64 -1z"/>
<path d="M350 876 c0 -19 67 -151 84 -166 12 -9 18 -6 31 14 22 33 37 32 105
-4 55 -30 80 -37 80 -22 0 14 -95 165 -111 175 -12 7 -24 4 -48 -14 l-33 -24
-49 28 c-56 31 -59 32 -59 13z"/>
<path d="M809 773 c-34 -43 -56 -79 -50 -81 6 -2 32 3 58 12 65 22 104 21 110
-4 8 -29 27 -25 57 11 37 44 80 119 72 127 -4 3 -21 0 -39 -7 -57 -24 -81 -24
-101 -2 -11 12 -25 21 -32 21 -8 0 -41 -35 -75 -77z"/>
<path d="M432 638 c-17 -17 -15 -53 3 -68 13 -10 26 -11 64 -2 62 14 162 62
155 73 -8 14 -208 11 -222 -3z"/>
<path d="M740 631 c0 -4 27 -31 60 -60 54 -48 60 -56 60 -92 0 -49 20 -59 121
-59 l69 0 -46 44 c-44 42 -46 47 -42 92 l3 48 -90 18 c-103 19 -135 22 -135 9z"/>
<path d="M671 597 c-6 -6 -11 -15 -11 -19 0 -13 27 -9 39 6 15 18 -11 30 -28
13z"/>
<path d="M331 575 c-12 -14 -58 -49 -101 -79 -43 -31 -82 -61 -86 -67 -9 -15
31 -50 135 -120 l74 -50 21 26 c20 24 29 27 119 32 l97 6 0 106 0 107 -107 -1
-108 0 -10 32 -10 31 -24 -23z"/>
<path d="M670 511 c-5 -11 -10 -50 -10 -86 0 -87 10 -105 58 -105 55 0 62 12
62 105 0 50 -5 86 -12 93 -20 20 -86 15 -98 -7z"/>
</g>
</svg>
