<?xml version="1.0" standalone="no"?>
<!DOCTYPE svg PUBLIC "-//W3C//DTD SVG 20010904//EN"
 "http://www.w3.org/TR/2001/REC-SVG-20010904/DTD/svg10.dtd">
<svg version="1.0" xmlns="http://www.w3.org/2000/svg"
 width="128.000000pt" height="128.000000pt" viewBox="10 -139 128.000000 128.000000"
 preserveAspectRatio="xMidYMid meet">
<metadata>
Created by potrace 1.15, written by Peter Selinger 2001-2017
</metadata>
<g transform="scale(0.1175,-0.1175)"
fill="#000000" stroke="none">
<path d="M744 1145 c-28 -28 -30 -52 -8 -83 22 -31 67 -29 93 4 26 33 27 56 4
76 -33 28 -63 29 -89 3z"/>
<path d="M919 994 c-30 -21 -87 -59 -126 -86 -85 -57 -93 -80 -41 -123 34 -28
138 -83 218 -115 50 -20 50 -20 70 0 18 18 19 29 14 162 -8 203 -33 232 -135
162z"/>
<path d="M224 1002 c-37 -24 -36 -91 1 -106 26 -10 60 -7 73 6 16 16 16 80 0
96 -13 13 -57 16 -74 4z"/>
<path d="M496 955 c-8 -21 3 -43 25 -50 24 -8 39 1 39 24 0 36 -52 57 -64 26z"/>
<path d="M355 815 c-38 -13 -88 -24 -110 -25 -100 -2 -175 -44 -160 -89 4 -12
35 -54 71 -93 35 -39 76 -89 91 -112 48 -72 64 -86 100 -86 50 0 78 33 97 117
8 39 29 96 46 128 38 72 41 132 7 163 -29 27 -53 26 -142 -3z"/>
<path d="M675 694 c-29 -29 -2 -94 39 -94 31 0 46 19 46 57 0 48 -51 71 -85
37z"/>
<path d="M1083 586 c-25 -21 -26 -26 -15 -50 6 -14 23 -31 37 -38 56 -25 105
35 71 87 -21 32 -56 32 -93 1z"/>
<path d="M900 505 c-18 -22 -1 -50 31 -50 20 0 24 5 24 30 0 23 -5 31 -21 33
-11 2 -27 -4 -34 -13z"/>
<path d="M677 473 c-10 -9 -8 -276 2 -291 23 -37 112 -4 254 92 62 43 45 80
-63 136 -30 16 -68 38 -85 49 -29 20 -94 28 -108 14z"/>
<path d="M476 395 c-31 -29 -33 -48 -6 -75 22 -22 79 -27 98 -8 30 30 -4 108
-47 108 -10 0 -30 -11 -45 -25z"/>
<path d="M290 251 c-20 -39 22 -82 60 -61 22 12 27 49 8 68 -18 18 -56 14 -68
-7z"/>
</g>
</svg>
