<?xml version="1.0" standalone="no"?>
<!DOCTYPE svg PUBLIC "-//W3C//DTD SVG 20010904//EN"
 "http://www.w3.org/TR/2001/REC-SVG-20010904/DTD/svg10.dtd">
<svg version="1.0" xmlns="http://www.w3.org/2000/svg"
 width="128.000000pt" height="128.000000pt" viewBox="10 -139 128.000000 128.000000"
 preserveAspectRatio="xMidYMid meet">
<metadata>
Created by potrace 1.15, written by Peter Selinger 2001-2017
</metadata>
<g transform="scale(0.1175,-0.1175)"
fill="#000000" stroke="none">
<path d="M732 1119 c-7 -11 -34 -30 -59 -41 -40 -18 -58 -20 -132 -14 -172 14
-151 20 -171 -52 -26 -93 -102 -178 -186 -207 -22 -7 -41 -21 -42 -30 -2 -9
12 -40 32 -68 59 -86 69 -153 40 -259 -21 -73 -14 -83 71 -99 99 -18 135 -45
183 -139 40 -79 48 -81 132 -30 85 51 154 63 220 36 81 -32 102 -21 114 66 9
60 52 119 113 154 100 57 112 85 69 158 -36 63 -39 90 -20 208 20 124 21 122
-55 133 -115 16 -158 43 -195 122 -15 32 -35 64 -44 71 -24 18 -56 15 -70 -9z
m-140 -199 c33 -33 33 -35 12 -196 -8 -65 14 -114 51 -114 36 0 42 37 15 89
-20 40 -20 43 -4 76 19 40 47 51 89 35 70 -26 90 -72 59 -132 -10 -20 -12 -34
-6 -40 16 -16 29 -2 41 47 9 34 17 46 35 51 50 12 70 1 98 -55 32 -63 32 -64
-56 -124 -88 -60 -142 -117 -150 -160 -4 -22 -15 -41 -27 -48 -29 -15 -144 -2
-196 23 -50 23 -211 189 -237 243 -22 45 -15 62 33 86 43 20 51 35 51 91 0 62
26 125 59 143 46 25 99 19 133 -15z"/>
</g>
</svg>
