<?xml version="1.0" standalone="no"?>
<!DOCTYPE svg PUBLIC "-//W3C//DTD SVG 20010904//EN"
 "http://www.w3.org/TR/2001/REC-SVG-20010904/DTD/svg10.dtd">
<svg version="1.0" xmlns="http://www.w3.org/2000/svg"
 width="128.000000pt" height="128.000000pt" viewBox="10 -139 128.000000 128.000000"
 preserveAspectRatio="xMidYMid meet">
<metadata>
Created by potrace 1.15, written by Peter Selinger 2001-2017
</metadata>
<g transform="scale(0.1175,-0.1175)"
fill="#000000" stroke="none">
<path d="M694 1105 c-100 -22 -189 -76 -219 -135 -18 -36 -44 -150 -38 -167 8
-20 87 -20 111 -1 6 6 12 29 12 53 0 99 28 123 176 152 81 16 87 16 99 0 16
-22 27 -122 19 -167 -9 -46 -18 -56 -84 -98 -113 -71 -150 -121 -150 -202 0
-44 3 -50 20 -50 29 0 76 26 84 45 3 9 6 28 6 41 0 19 14 33 63 63 144 91 160
118 161 266 1 83 -2 106 -19 134 -38 64 -132 90 -241 66z"/>
<path d="M195 719 c-22 -6 -48 -16 -59 -24 -49 -37 8 -125 82 -125 l37 0 -39
33 c-24 20 -36 38 -32 45 13 21 109 14 157 -11 51 -27 58 -47 30 -83 -39 -49
-16 -104 42 -104 27 0 36 13 17 25 -16 10 -11 41 10 60 11 10 20 26 20 35 0
31 -59 99 -112 130 -55 31 -84 35 -153 19z"/>
<path d="M864 515 c-28 -28 -29 -62 -1 -79 14 -9 23 -5 48 22 16 17 33 32 36
32 3 0 26 -16 49 -36 76 -62 56 -114 -51 -130 -27 -4 -61 -11 -75 -16 -24 -9
-24 -10 -6 -24 23 -16 141 -19 180 -5 25 10 76 85 76 113 0 20 -98 110 -143
131 -49 24 -84 21 -113 -8z"/>
<path d="M430 407 c0 -21 31 -43 67 -50 44 -9 49 6 12 37 -33 28 -79 35 -79
13z"/>
<path d="M632 388 c-6 -6 -12 -34 -12 -60 0 -55 13 -66 62 -52 63 18 57 116
-7 122 -17 2 -36 -3 -43 -10z"/>
<path d="M780 215 c-17 -21 -6 -43 26 -51 20 -5 31 -2 40 11 29 39 -35 78 -66
40z"/>
</g>
</svg>
