<?xml version="1.0" standalone="no"?>
<!DOCTYPE svg PUBLIC "-//W3C//DTD SVG 20010904//EN"
 "http://www.w3.org/TR/2001/REC-SVG-20010904/DTD/svg10.dtd">
<svg version="1.0" xmlns="http://www.w3.org/2000/svg"
 width="128.000000pt" height="128.000000pt" viewBox="10 -139 128.000000 128.000000"
 preserveAspectRatio="xMidYMid meet">
<metadata>
Created by potrace 1.15, written by Peter Selinger 2001-2017
</metadata>
<g transform="scale(0.1175,-0.1175)"
fill="#000000" stroke="none">
<path d="M197 1113 c-10 -16 25 -189 44 -219 11 -18 119 -130 241 -249 l221
-216 -7 -57 c-3 -31 -8 -73 -11 -92 -3 -19 -1 -41 4 -49 13 -21 36 0 67 60 13
26 28 50 32 53 19 11 91 -66 121 -129 40 -83 57 -93 107 -59 22 15 45 31 52
37 10 8 -9 30 -78 97 -79 75 -91 92 -88 116 3 24 11 31 66 52 102 39 73 69
-62 65 -38 -1 -77 2 -88 8 -22 12 -118 147 -118 166 0 24 24 9 40 -25 8 -17
20 -32 25 -32 14 0 198 189 228 236 21 32 67 195 67 237 0 6 -19 7 -42 4 -76
-11 -142 -36 -181 -68 -59 -48 -198 -226 -191 -244 7 -18 34 -20 34 -2 0 21
137 188 178 218 42 30 102 52 131 47 16 -2 -7 -33 -118 -158 -187 -210 -171
-198 -212 -158 -18 18 -66 78 -107 133 -126 170 -140 182 -242 214 -68 22
-106 26 -113 14z m163 -68 c38 -20 77 -65 197 -226 211 -285 234 -320 231
-336 -6 -31 -26 -24 -64 24 -22 26 -137 159 -256 296 -120 137 -218 253 -218
259 0 12 75 1 110 -17z"/>
<path d="M455 550 c-28 -29 -30 -29 -121 -27 -74 1 -97 -1 -109 -14 -15 -15
-11 -18 45 -42 34 -15 68 -27 75 -27 57 0 5 -77 -128 -187 -35 -29 -34 -47 2
-84 49 -49 81 -38 118 38 14 31 45 76 69 101 51 53 55 52 101 -37 15 -29 33
-52 38 -50 12 5 13 96 2 161 -8 45 -7 47 22 63 38 19 39 34 6 65 l-25 24 -33
-32 c-18 -18 -36 -32 -40 -32 -13 0 -7 44 8 64 16 22 20 46 7 46 -5 0 -21 -13
-37 -30z"/>
</g>
</svg>
