<?xml version="1.0" standalone="no"?>
<!DOCTYPE svg PUBLIC "-//W3C//DTD SVG 20010904//EN"
 "http://www.w3.org/TR/2001/REC-SVG-20010904/DTD/svg10.dtd">
<svg version="1.0" xmlns="http://www.w3.org/2000/svg"
 width="128.000000pt" height="128.000000pt" viewBox="10 -139 128.000000 128.000000"
 preserveAspectRatio="xMidYMid meet">
<metadata>
Created by potrace 1.15, written by Peter Selinger 2001-2017
</metadata>
<g transform="scale(0.1175,-0.1175)"
fill="#000000" stroke="none">
<path d="M122 657 c3 -466 7 -514 39 -456 10 18 14 126 17 432 l5 407 358 0
359 0 0 -75 0 -75 -285 0 -285 0 -1 -125 c-1 -69 -2 -131 -3 -137 -2 -20 203
-23 229 -4 16 12 18 18 9 33 -8 14 -28 19 -82 23 -39 3 -75 10 -81 15 -5 6
-13 34 -17 63 l-7 52 293 0 293 0 -7 142 c-4 79 -10 145 -12 147 -3 3 -189 7
-415 9 l-410 5 3 -456z"/>
<path d="M1124 1098 c-5 -7 -10 -197 -12 -423 -2 -225 -7 -414 -12 -419 -11
-11 -672 3 -691 14 -7 5 -14 34 -17 69 l-4 61 291 0 291 0 0 140 0 141 -122
-3 c-121 -3 -123 -3 -126 -27 -5 -34 12 -41 101 -41 l77 0 0 -65 0 -65 -291 0
-291 0 6 -31 c3 -17 6 -83 6 -145 l0 -114 368 0 c202 0 391 3 420 6 l52 7 -1
321 c-1 475 -13 625 -45 574z"/>
</g>
</svg>
