<?xml version="1.0" standalone="no"?>
<!DOCTYPE svg PUBLIC "-//W3C//DTD SVG 20010904//EN"
 "http://www.w3.org/TR/2001/REC-SVG-20010904/DTD/svg10.dtd">
<svg version="1.0" xmlns="http://www.w3.org/2000/svg"
 width="128.000000pt" height="128.000000pt" viewBox="10 -139 128.000000 128.000000"
 preserveAspectRatio="xMidYMid meet">
<metadata>
Created by potrace 1.15, written by Peter Selinger 2001-2017
</metadata>
<g transform="scale(0.1175,-0.1175)"
fill="#000000" stroke="none">
<path d="M318 1076 c-77 -64 -140 -155 -169 -246 -31 -96 -30 -232 3 -326 59
-169 181 -287 341 -330 69 -18 208 -18 282 1 79 20 195 77 236 117 42 38 29
46 -50 28 -199 -45 -401 51 -532 254 -65 99 -83 157 -83 271 0 94 2 105 37
183 20 46 37 88 37 93 0 23 -42 4 -102 -45z"/>
<path d="M977 1015 c-44 -31 -51 -65 -12 -65 15 0 36 -11 49 -25 22 -24 24
-24 29 -6 3 12 18 23 38 29 47 12 48 35 2 66 -47 32 -59 32 -106 1z"/>
<path d="M607 976 c-9 -13 -29 -26 -46 -29 -42 -9 -39 -31 7 -54 23 -11 38
-26 40 -40 7 -49 45 -48 53 2 2 11 21 28 42 38 46 23 48 44 5 55 -19 4 -37 17
-43 30 -13 29 -39 28 -58 -2z"/>
<path d="M830 802 c-23 -38 -44 -57 -88 -79 -62 -32 -72 -53 -29 -65 15 -5 39
-11 54 -16 19 -5 37 -24 58 -62 41 -73 72 -80 81 -19 9 54 36 80 111 104 l58
18 -60 28 c-67 30 -95 56 -110 102 -16 49 -40 46 -75 -11z"/>
</g>
</svg>
