<?xml version="1.0" standalone="no"?>
<!DOCTYPE svg PUBLIC "-//W3C//DTD SVG 20010904//EN"
 "http://www.w3.org/TR/2001/REC-SVG-20010904/DTD/svg10.dtd">
<svg version="1.0" xmlns="http://www.w3.org/2000/svg"
 width="128.000000pt" height="128.000000pt" viewBox="10 -139 128.000000 128.000000"
 preserveAspectRatio="xMidYMid meet">
<metadata>
Created by potrace 1.15, written by Peter Selinger 2001-2017
</metadata>
<g transform="scale(0.1175,-0.1175)"
fill="#000000" stroke="none">
<path d="M460 1069 c0 -24 124 -163 369 -411 140 -142 258 -258 262 -258 30 0
-32 124 -103 207 -58 67 -375 366 -457 432 -54 42 -71 49 -71 30z"/>
<path d="M645 1051 c188 -184 481 -461 487 -461 4 0 8 11 8 24 0 57 -193 289
-305 366 -58 40 -179 100 -201 100 -15 0 -13 -5 11 -29z"/>
<path d="M330 990 c0 -5 15 -26 33 -45 18 -19 63 -83 99 -142 122 -197 286
-378 366 -404 21 -7 72 -34 114 -61 74 -46 98 -56 98 -42 0 19 -563 606 -645
671 -40 33 -65 42 -65 23z"/>
<path d="M323 823 c-66 -147 -116 -298 -117 -350 -1 -43 4 -57 30 -90 70 -87
112 -97 204 -50 86 44 109 118 74 238 -20 68 -139 319 -152 319 -5 0 -23 -30
-39 -67z m137 -218 c14 -48 9 -150 -7 -166 -5 -5 -17 -7 -26 -3 -14 5 -17 20
-17 74 0 102 10 162 25 150 7 -6 18 -30 25 -55z"/>
<path d="M571 424 c-7 -30 -11 -57 -9 -59 23 -21 208 -99 208 -88 0 15 -166
203 -180 203 -4 0 -12 -25 -19 -56z"/>
</g>
</svg>
