<?xml version="1.0" standalone="no"?>
<!DOCTYPE svg PUBLIC "-//W3C//DTD SVG 20010904//EN"
 "http://www.w3.org/TR/2001/REC-SVG-20010904/DTD/svg10.dtd">
<svg version="1.0" xmlns="http://www.w3.org/2000/svg"
 width="128.000000pt" height="128.000000pt" viewBox="10 -139 128.000000 128.000000"
 preserveAspectRatio="xMidYMid meet">
<metadata>
Created by potrace 1.15, written by Peter Selinger 2001-2017
</metadata>
<g transform="scale(0.1175,-0.1175)"
fill="#000000" stroke="none">
<path d="M287 1039 c-239 -158 -270 -516 -63 -723 83 -82 102 -76 40 15 -20
29 -51 82 -68 118 -30 63 -31 72 -31 191 0 153 17 202 111 326 92 122 92 127
11 73z"/>
<path d="M940 1047 c0 -7 21 -40 46 -73 92 -118 141 -252 130 -355 -7 -75 -49
-189 -98 -272 -22 -37 -38 -70 -35 -73 10 -11 65 35 101 85 126 171 133 396
18 564 -48 68 -162 156 -162 124z"/>
<path d="M549 1030 c-25 -4 -63 -17 -85 -28 -41 -22 -129 -101 -120 -109 3 -3
31 9 63 27 165 91 291 93 433 7 68 -41 90 -50 90 -35 0 20 -83 90 -134 114
-58 26 -174 38 -247 24z"/>
<path d="M559 938 c-44 -29 -91 -123 -92 -181 0 -23 3 -66 8 -94 l8 -53 -30 0
c-47 0 -55 -17 -32 -62 26 -51 135 -160 176 -177 49 -20 76 -8 158 70 91 87
122 133 105 154 -7 8 -21 15 -31 15 -29 0 -39 32 -39 123 0 126 -20 171 -92
208 -49 25 -98 24 -139 -3z m30 -241 c14 -18 4 -27 -31 -27 -21 0 -28 5 -28
20 0 24 41 28 59 7z m150 0 c14 -18 4 -27 -29 -27 -32 0 -41 7 -33 26 7 18 47
18 62 1z"/>
<path d="M385 360 c22 -23 65 -53 95 -68 49 -24 66 -27 160 -27 94 0 111 3
160 27 30 15 73 46 95 69 44 46 45 46 -75 -8 -81 -36 -89 -38 -192 -38 -105 0
-107 0 -188 43 -45 23 -84 42 -88 42 -3 0 12 -18 33 -40z"/>
</g>
</svg>
